<?xml version="1.0" standalone="no"?><!DOCTYPE svg PUBLIC "-//W3C//DTD SVG 1.1//EN" "http://www.w3.org/Graphics/SVG/1.1/DTD/svg11.dtd"><svg t="1537340242051" class="icon" style="" viewBox="0 0 1024 1024" version="1.1" xmlns="http://www.w3.org/2000/svg" p-id="1851" xmlns:xlink="http://www.w3.org/1999/xlink" width="128" height="128"><defs><style type="text/css"></style></defs><path d="M699.26790637 486.65228325l-213.13278104 233.0168889c-7.37886815 8.03908267-17.78695585 12.62174815-28.69991348 12.62174815h-0.19418074a38.91382045 38.91382045 0 0 1-28.73874963-12.97127349l-104.04204089-116.50844445a38.83614815 38.83614815 0 1 1 57.94353304-51.72974933l75.38096355 84.46862222 184.12217837-201.326592a38.8749843 38.8749843 0 0 1 57.36099082 52.4288m162.10208238-379.04080592H783.85303703c-0.0776723 0 0 24.93280711 0 39.22450963v76.89557334a77.86647703 77.86647703 0 0 1-77.4392794 78.13833006h-388.74984296A77.86647703 77.86647703 0 0 1 240.14696297 223.77039644v-76.89557333c0-14.36937482-0.15534459-26.05905541-0.1553446-39.22450963H162.16397748A77.43927941 77.43927941 0 0 0 84.80237037 184.97308444v699.67204504c0 42.68092682 34.6806803 77.36160711 77.36160711 77.3616071H861.91369482A77.43927941 77.43927941 0 0 0 939.19762963 884.68396563V184.97308444c0-42.64209067-34.95253333-77.36160711-77.82764088-77.36160711" p-id="1852"></path><path d="M702.06410903 93.31977481a51.65207703 51.65207703 0 0 0-44.66157036-26.02021926H371.02478222c-19.14622103 0-35.7292563 10.48576-44.73924267 25.98138311a52.3511277 52.3511277 0 0 0-7.30119585 26.36974459v51.57440475c0 28.93293037 23.30168889 52.4288 52.04043852 52.4288h286.37775645c28.66107733 0 51.96276622-23.49586963 51.96276622-52.4288V119.65068325c0-9.70903703-2.75736652-18.52484267-7.30119586-26.33090844" p-id="1853"></path></svg>