<?xml version="1.0" standalone="no"?><!DOCTYPE svg PUBLIC "-//W3C//DTD SVG 1.1//EN" "http://www.w3.org/Graphics/SVG/1.1/DTD/svg11.dtd"><svg t="1537340281421" class="icon" style="" viewBox="0 0 1024 1024" version="1.1" xmlns="http://www.w3.org/2000/svg" p-id="2112" xmlns:xlink="http://www.w3.org/1999/xlink" width="128" height="128"><defs><style type="text/css"></style></defs><path d="M719.12612347 498.32967585c0 114.16791925-92.91677899 207.12612347-207.12612347 207.12612346s-207.12612347-92.95820421-207.12612347-207.12612346c0-114.2507697 92.91677899-207.12612347 207.12612347-207.12612346s207.12612347 92.87535376 207.12612347 207.12612346m271.16952082-135.87473699a41.13524812 41.13524812 0 0 0-42.50228054-30.03328789 81.15201517 81.15201517 0 0 1-21.54111684-1.49130809 82.60189804 82.60189804 0 0 1-55.50980108-39.76821571 82.51904758 82.51904758 0 0 1 2.73406484-87.36579887 41.42522469 41.42522469 0 0 0-4.76390086-51.74010563c-25.35223751-26.09789155-53.89421733-48.21896155-83.92750522-68.02021896-46.35482643-30.57181582-97.05930145-54.26704435-151.28492057-67.89594326a41.38379947 41.38379947 0 0 0-47.22475615 21.78966818 82.43619714 82.43619714 0 0 1-74.15115219 46.10627508h-0.24855136a82.43619714 82.43619714 0 0 1-74.15115219-46.10627508 41.42522469 41.42522469 0 0 0-47.22475615-21.78966818c-54.26704435 13.67032415-104.93009413 37.32412745-151.28492057 67.93736849-30.0332879 19.75983218-58.57526771 41.88090217-83.92750522 67.97879373a41.42522469 41.42522469 0 0 0-4.80532607 51.78153084 82.43619714 82.43619714 0 0 1 2.73406483 87.32437366A82.06337011 82.06337011 0 0 1 97.74775309 330.8060672a81.31771607 81.31771607 0 0 1-21.58254207 1.65700898 40.80384631 40.80384631 0 0 0-42.46085531 29.99186268A495.98421523 495.98421523 0 0 0 14.8973037 498.32967585c0 46.10627508 6.29663415 91.79829792 18.80705201 135.75046131a41.30094901 41.30094901 0 0 0 42.46085531 30.03328791c7.33226477-0.41425225 14.58167909 0.28997657 21.58254207 1.69843422a82.5604728 82.5604728 0 0 1 52.73431103 126.92688844 41.42522469 41.42522469 0 0 0 4.80532607 51.78153086c25.35223751 26.09789155 53.89421733 48.21896155 83.88608 68.02021896 46.39625165 30.65466627 97.05930145 54.26704435 151.32634579 67.85451803a41.34237424 41.34237424 0 0 0 47.22475615-21.78966819A82.39477191 82.39477191 0 0 1 512 912.58192276c31.73172211 0 60.19085147 17.64714572 74.27542787 46.06484986a41.42522469 41.42522469 0 0 0 47.22475615 21.78966818c54.26704435-13.5874737 104.93009413-37.24127699 151.28492057-67.85451804 30.0332879-19.80125741 58.57526771-41.92232738 83.92750522-68.06164417a41.42522469 41.42522469 0 0 0 4.76390086-51.74010563 82.43619714 82.43619714 0 0 1-2.73406484-87.32437365c12.17901605-21.12686459 32.35310048-35.21144098 55.50980108-39.7682157a84.50745837 84.50745837 0 0 1 21.54111684-1.53273332c19.46985561 1.15990629 37.15842655-11.30908635 42.50228054-30.03328789A497.9312008 497.9312008 0 0 0 1009.1026963 498.32967585c0-46.1477003-6.33805938-91.83972315-18.80705201-135.83331176" p-id="2113"></path></svg>