<?xml version="1.0" standalone="no"?><!DOCTYPE svg PUBLIC "-//W3C//DTD SVG 1.1//EN" "http://www.w3.org/Graphics/SVG/1.1/DTD/svg11.dtd"><svg t="1537340207708" class="icon" style="" viewBox="0 0 1024 1024" version="1.1" xmlns="http://www.w3.org/2000/svg" p-id="1590" xmlns:xlink="http://www.w3.org/1999/xlink" width="128" height="128"><defs><style type="text/css"></style></defs><path d="M677.70089876 872.56515571H234.3267189v-0.12427568l111.97238234 0.04142523v-153.89470972c0-1.03563061 0.28997657-1.98841078 0.28997657-2.98261618 1.65700898-90.0998637 75.06250715-162.96683394 165.41092219-162.96683394s163.75391321 72.90839547 165.41092219 162.96683394c0 0.99420539 0.28997657 1.94698557 0.28997657 2.98261618v153.97756017z m311.84909148-553.648128L884.82702222 250.31685563V117.3833096a41.42522469 41.42522469 0 1 0-82.85044939 0v78.7079269l-267.2755497-175.18727522A40.51386975 40.51386975 0 0 0 511.25434595 14.8973037a40.34816885 40.34816885 0 0 0-22.78387358 6.00665758L33.62150526 318.95845294a41.42522469 41.42522469 0 0 0 45.40204626 69.30440091L97.74775309 375.95956211V884.82702222c0 38.9397112 35.17001577 70.67143333 78.41795034 70.67143333h671.66859314C891.08223115 955.45703031 926.25224691 923.76673343 926.25224691 884.82702222V376.53951525l17.9371223 11.7233386a41.38379947 41.38379947 0 0 0 45.36062103-69.30440091z" p-id="1591"></path></svg>