<?xml version="1.0" standalone="no"?><!DOCTYPE svg PUBLIC "-//W3C//DTD SVG 1.1//EN" "http://www.w3.org/Graphics/SVG/1.1/DTD/svg11.dtd"><svg t="1537340633746" class="icon" style="" viewBox="0 0 1024 1024" version="1.1" xmlns="http://www.w3.org/2000/svg" p-id="2242" xmlns:xlink="http://www.w3.org/1999/xlink" width="128" height="128"><defs><style type="text/css"></style></defs><path d="M837.85081742 481.01393193l-180.48970398 180.48970398a41.30094901 41.30094901 0 0 1-58.57526771 0l-132.47786857-132.47786856-173.73739236 171.99753292a41.34237424 41.34237424 0 0 1-58.5752677-0.3314018 41.42522469 41.42522469 0 0 1 0.28997657-58.57526772l203.02502621-200.9951902a41.42522469 41.42522469 0 0 1 58.45099203 0.1657009l132.31216767 132.3535929 151.20207013-151.20207014a41.38379947 41.38379947 0 1 1 58.57526771 58.57526772M885.15842402 56.32252839H138.84157598A82.60189804 82.60189804 0 0 0 56.32252839 138.84157598v746.31684804C56.32252839 930.68474595 93.31525405 967.67747161 138.84157598 967.67747161h746.31684804A82.60189804 82.60189804 0 0 0 967.67747161 885.15842402V138.84157598A82.64332325 82.64332325 0 0 0 885.15842402 56.32252839" p-id="2243"></path></svg>