<?xml version="1.0" standalone="no"?><!DOCTYPE svg PUBLIC "-//W3C//DTD SVG 1.1//EN" "http://www.w3.org/Graphics/SVG/1.1/DTD/svg11.dtd"><svg t="1537283572848" class="icon" style="" viewBox="0 0 1024 1024" version="1.1" xmlns="http://www.w3.org/2000/svg" p-id="1081" xmlns:xlink="http://www.w3.org/1999/xlink" width="128" height="128"><defs><style type="text/css"></style></defs><path d="M437.333333 548.266667c-117.333333 0-215.466667-93.866667-215.466666-211.2 0-115.2 96-211.2 215.466666-211.2 117.333333 0 215.466667 93.866667 215.466667 211.2s-98.133333 211.2-215.466667 211.2m87.466667 377.6h-160c-151.466667 0-270.933333 0-270.933333-76.8v-14.933334c0-147.2 121.6-264.533333 270.933333-264.533333h160c149.333333 0 270.933333 119.466667 270.933333 264.533333v14.933334c0 76.8-123.733333 76.8-270.933333 76.8" p-id="1082"></path><path d="M759.466667 558.933333c55.466667-32 91.733333-91.733333 89.6-157.866666 2.133333-98.133333-76.8-177.066667-172.8-179.2h-25.6v2.133333l25.6 38.4c74.666667 0 134.4 59.733333 134.4 134.4s-59.733333 134.4-134.4 134.4h-6.4l72.533333 68.266667c93.866667 4.266667 168.533333 83.2 168.533333 177.066666v12.8c0 4.266667-2.133333 6.4-4.266666 8.533334-8.533333 6.4-19.2 10.666667-29.866667 12.8-17.066667 2.133333-34.133333 4.266667-53.333333 6.4 0 14.933333-4.266667 27.733333-8.533334 40.533333v4.266667h4.266667c72.533333 0 140.8-12.8 140.8-72.533334v-8.533333c2.133333-113.066667-85.333333-211.2-200.533333-221.866667z" p-id="1083"></path></svg>