<?xml version="1.0" standalone="no"?><!DOCTYPE svg PUBLIC "-//W3C//DTD SVG 1.1//EN" "http://www.w3.org/Graphics/SVG/1.1/DTD/svg11.dtd"><svg t="1538015693219" class="icon" style="" viewBox="0 0 1024 1024" version="1.1" xmlns="http://www.w3.org/2000/svg" p-id="1519" xmlns:xlink="http://www.w3.org/1999/xlink" width="128" height="128"><defs><style type="text/css"></style></defs><path d="M606.91554608 463.15641363v255.46418252a38.83614815 38.83614815 0 1 0 77.67229629 0v-255.46418252a38.83614815 38.83614815 0 1 0-77.67229629 0M373.89865718 463.15641363v255.46418252a38.83614815 38.83614815 0 1 0 77.6722963 0v-255.46418252a38.83614815 38.83614815 0 1 0-77.6722963 0" p-id="1520"></path><path d="M348.96585008 226.99379674l-10.79644919-76.89557333 307.65996563-43.26346905 10.83528533 76.93440949-307.69880177 43.22463289z m538.38552177-75.65281659l-153.79114667 21.59289836-14.40821096-102.44975881a44.31204503 44.31204503 0 0 0-17.51510281-29.39896415c-19.922944-15.02958933-50.09863111-13.43730725-66.44864949-11.18481067L327.13993482 73.20265008c-56.5454317 7.96141037-73.01195852 37.24386608-69.51670519 61.98249243l14.36937482 102.60510341-153.79114667 21.63173452a38.83614815 38.83614815 0 1 0 10.83528533 76.89557334l55.72987259-7.80606578a38.05942518 38.05942518 0 0 0-5.0875354 18.17531733v543.62840178c0 42.87510755 34.83602489 77.71113245 77.67229629 77.71113244h543.66723793a77.78880475 77.78880475 0 0 0 77.6722963-77.71113244V346.68680533a38.83614815 38.83614815 0 1 0-77.6722963 0v543.66723792l-543.70607407-0.03883614V346.68680533a38.52545897 38.52545897 0 0 0-10.91295763-26.83577837l651.78707436-91.61447348a38.83614815 38.83614815 0 0 0 33.01072593-43.8848474 38.40895052 38.40895052 0 0 0-43.88484741-33.01072593z" p-id="1521"></path></svg>