<?xml version="1.0" encoding="UTF-8"?>
<svg width="24px" height="24px" viewBox="0 0 24 24" version="1.1" xmlns="http://www.w3.org/2000/svg" xmlns:xlink="http://www.w3.org/1999/xlink">
    <!-- Generator: Sketch 50.2 (55047) - http://www.bohemiancoding.com/sketch -->
    <title>图标/支付/icon_pay_wechat</title>
    <desc>Created with Sketch.</desc>
    <defs>
        <polygon id="path-1" points="2 3 21.9487163 3 21.9487163 20.6005461 2 20.6005461"></polygon>
    </defs>
    <g id="图标/支付/icon_pay_wechat" stroke="none" stroke-width="1" fill="none" fill-rule="evenodd">
        <rect id="Rectangle" x="0" y="0" width="24" height="24"></rect>
        <rect id="Combined-Shape" fill="#1AAD19" x="0" y="0" width="24" height="24" rx="2"></rect>
        <mask id="mask-2" fill="white">
            <use xlink:href="#path-1"></use>
        </mask>
        <g id="Clip-2"></g>
        <path d="M9.81906093,13.9295605 C9.74687586,13.9659659 9.66553255,13.9870697 9.57906974,13.9870697 C9.37906761,13.9870697 9.20528874,13.8770003 9.11382018,13.7141999 L9.07889376,13.6376917 L7.62250735,10.4416963 C7.60680752,10.4069974 7.59708046,10.367634 7.59708046,10.3294084 C7.59708046,10.1820803 7.71642189,10.062682 7.86369309,10.062682 C7.92353445,10.062682 7.97871138,10.0825912 8.02319422,10.1156973 L9.74187011,11.3393168 C9.86746872,11.4214564 10.0174703,11.4696367 10.1787917,11.4696367 C10.2749816,11.4696367 10.3668483,11.4516046 10.4522872,11.4206032 L18.5347398,7.82335207 C17.0860326,6.11582533 14.6999435,5 11.9999147,5 C7.58155128,5 4,7.98473035 4,11.6667947 C4,13.6755192 5.07759966,15.4837296 6.7641933,16.7059838 C6.8994621,16.8025718 6.98802959,16.9612766 6.98802959,17.1403456 C6.98802959,17.1995044 6.97540147,17.2537143 6.9598723,17.3102564 C6.82522922,17.8127646 6.60964103,18.6174945 6.59951578,18.6550944 C6.58273517,18.718235 6.55651191,18.7839923 6.55651191,18.8499771 C6.55651191,18.9973051 6.67585334,19.1166466 6.82335207,19.1166466 C6.88108875,19.1166466 6.92847264,19.0951446 6.97727863,19.0669305 L8.72866249,18.0558275 C8.86040451,17.9798882 8.99988268,17.9327318 9.15352482,17.9327318 C9.2352663,17.9327318 9.31427738,17.9453599 9.38856714,17.9681133 C10.2056976,18.2030987 11.0871632,18.3336462 11.9999147,18.3336462 C16.4180505,18.3336462 20,15.3486314 20,11.6667947 C20,10.551595 19.6696779,9.50129943 19.0887275,8.57739879 L9.87742332,13.8957718 L9.81906093,13.9295605 Z" id="Fill-1" fill="#FFFFFF" mask="url(#mask-2)"></path>
    </g>
</svg>